<svg xmlns="http://www.w3.org/2000/svg" width="27.47" height="26.26" viewBox="0 0 27.47 26.26"><path d="M15.39,29.13h0a13.13,13.13,0,1,1,0-26.26h0A12.94,12.94,0,0,1,20.74,4a1,1,0,0,1-.82,1.82,11.15,11.15,0,0,0-4.52-1h0a11.13,11.13,0,1,0,0,22.26h0A11.13,11.13,0,0,0,26.52,16V14.88a1,1,0,1,1,2,0V16A13.13,13.13,0,0,1,15.39,29.13Z" transform="translate(-2.26 -2.87)" fill="#fff"/><path d="M15.39,19.43a1,1,0,0,1-.7-.29L11.05,15.5a1,1,0,0,1,1.41-1.41L15.39,17,28,4.38a1,1,0,0,1,1.41,0,1,1,0,0,1,0,1.42L16.1,19.14A1,1,0,0,1,15.39,19.43Z" transform="translate(-2.26 -2.87)" fill="#fff"/></svg>