<?xml version="1.0" encoding="UTF-8"?>
<svg width="1200px" height="616px" viewBox="0 0 1200 616" version="1.1" xmlns="http://www.w3.org/2000/svg" xmlns:xlink="http://www.w3.org/1999/xlink">
    <title>amazon_merchant_fulfillment_network_hero_02</title>
    <g id="amazon_merchant_fulfillment_network_hero_02" stroke="none" stroke-width="1" fill="none" fill-rule="evenodd">
        <g id="Medical">
            <polygon id="Fill-1" fill="#E9CC7B" points="782.220706 160.958582 782.220706 48.7957392 594.199929 48.7957392 594.199929 207.66569 571.134183 207.66569 571.134183 282.413508 516.203993 282.413508 516.203993 361.889599 537.419545 361.889599 537.419545 441.324574 512.791414 441.324574 512.791414 580.541358 713.270161 580.541358 713.270161 520.718434 708.747465 520.718434 708.747465 441.324574 720.054203 441.324574 720.054203 366.53564 743.777796 366.53564 743.777796 399.263508 748.300491 399.263508 748.300491 478.739598 800.270371 478.739598 800.270371 505.094577 804.793067 505.094577 804.793067 584.570668 1000.74912 584.570668 1000.74912 425.659602 1016.94859 425.659602 1016.94859 346.265742 939.692732 346.265742 939.692732 160.958582"></polygon>
            <path d="M868.56307,224.769701 L898.453974,195.618874 M641.153729,220.082544 L612.414056,199.565954" id="Stroke-2" stroke="#F5DA93" stroke-width="6.3532" stroke-linejoin="round"></path>
            <polygon id="Fill-3" fill="#F5DA93" points="633.958532 191.71291 641.153729 220.082544 868.56307 224.769701 881.02104 191.71291"></polygon>
            <path d="M871.687841,330.641886 L871.687841,313.537875 L650.445812,313.537875 L871.687841,330.641886 Z M867.699647,424.385024 L867.699647,407.034321 L650.486927,407.034321 L867.699647,424.385024 L867.699647,424.385024 Z M867.699647,522.527512 L867.699647,500.448536 L642.469422,500.448536 L867.699647,522.527512 Z" id="Fill-4" fill="#E9CC7B"></path>
            <path d="M649.993542,220.082544 L641.153729,220.082544 L641.153729,313.57899 L650.486927,313.57899 L871.728957,313.57899 L871.728957,220.082544 L859.312103,220.082544 L649.993542,220.082544 Z M650.486927,407.034321 L637.165534,407.034321 L637.165534,500.489651 L642.510537,500.489651 L867.740762,500.489651 L867.740762,424.385024 L650.486927,407.034321 L650.486927,407.034321 Z M650.486927,313.57899 L650.486927,407.034321 L867.699647,407.034321 L881.02104,407.034321 L881.02104,313.57899 L871.687841,313.57899 L871.687841,330.683001 L650.486927,313.57899 L650.486927,313.57899 Z M873.003535,500.489651 L867.658531,500.489651 L867.658531,522.568627 L642.428306,500.489651 L642.428306,593.944982 L872.962419,593.944982 L872.962419,500.489651 L873.003535,500.489651 Z" id="Fill-5" fill="#F5DB93"></path>
            <line x1="859.270987" y1="220.082544" x2="649.993542" y2="220.082544" id="Stroke-6" stroke="#E9CC7B" stroke-width="2.5413" stroke-linejoin="round"></line>
            <g id="Group-32">
                <path d="M187.034007,280.242646 L184.114813,288.71242 C183.78589,295.578694 187.486277,295.743156 195.25709,289.205805 C202.616748,282.956263 200.972132,278.556914 190.282125,275.966643 C189.542048,272.101794 188.061893,271.115024 185.800545,273.006333 C182.34685,275.71995 182.716889,278.14576 187.034007,280.242646" id="Fill-7" fill="#F9DCB2"></path>
                <path d="M126.429891,172.273575 C122.482811,169.231034 119.111347,167.709764 116.356615,167.709764 C110.929381,167.709764 108.092417,174.123768 107.763494,186.951777 L107.311224,215.444757 L138.065552,261.617364 L184.114813,288.71242 L187.034007,280.242646 C182.758005,278.14576 182.34685,275.71995 185.800545,273.006333 L156.115218,244.061083 C146.124173,199.039708 136.256474,175.110538 126.429891,172.273575" id="Fill-9" fill="#00464F"></path>
                <path d="M117.3845,95.3877549 C107.434571,86.8768647 95.4288703,87.2880188 81.3673996,96.6212173 C67.3470442,105.9133 67.9637754,114.383075 83.2998239,122.030542 L117.3845,95.3877549 Z M148.262174,295.948733 L138.476706,295.948733 L107.105647,295.948733 L95.4288703,295.948733 L55.9580752,295.948733 C56.533691,307.008778 57.232653,318.767786 58.0549612,331.225756 C60.1107318,331.390218 62.0020407,331.595795 63.728888,331.801372 C74.6244721,332.952603 84.204363,333.692681 92.4685607,333.980488 C95.0177162,334.14495 98.3069491,334.14495 102.254029,333.980488 L105.255454,333.980488 C115.040922,333.651565 128.280084,332.952603 144.972941,331.801372 C146.370865,331.719141 147.727674,331.678025 149.125598,331.595795 C148.961136,319.055594 148.673328,307.17324 148.262174,295.948733 L148.262174,295.948733 Z M53.6967276,226.957072 C72.815394,234.440077 82.107477,229.053958 81.5318612,210.716484 C80.9562455,192.29678 74.5422412,178.893156 62.2898486,170.505612 C55.6702673,175.316115 52.7921885,194.146974 53.6967276,226.957072 L53.6967276,226.957072 Z" id="Fill-11" fill="#00464F"></path>
                <path d="M87.9458654,157.389796 C86.0545565,157.389796 84.0810167,157.759834 81.9430153,158.499912 C92.797484,165.283955 100.033796,178.76981 103.651953,198.957477 L131.034817,198.957477 C127.128853,181.442311 120.468156,169.477727 111.011611,163.104838 C110.929381,162.981492 110.84715,162.899261 110.682688,162.81703 C105.789954,164.379416 98.2247183,162.570337 87.9458654,157.389796 M72.322009,163.104838 C69.1561223,165.037262 65.7846586,167.504187 62.2487332,170.464497 C74.5011258,178.85204 80.91513,192.255665 81.4907458,210.675369 C82.0663616,229.012843 72.7742785,234.440077 53.6556121,226.915957 C54.6012666,259.849401 55.341344,282.874032 55.9169598,295.907617 L95.3877549,295.907617 C96.3745248,268.853676 95.9222553,242.169774 94.0720618,215.77368 C92.3452145,189.33647 85.0677866,171.739074 72.322009,163.104838 M134.077357,219.432952 C133.912896,217.500527 133.707319,215.609218 133.501741,213.759025 L105.502146,213.759025 C107.845725,239.003888 108.380225,266.427867 107.105647,295.948733 L138.476706,295.948733 C138.230014,273.74641 136.749859,248.254855 134.077357,219.432952" id="Fill-13" fill="#FFE398"></path>
                <path d="M81.9841307,158.499912 C79.1060519,159.404451 75.8990498,160.925721 72.3631244,163.104838 C85.108902,171.739074 92.3452145,189.33647 94.1131772,215.814796 C96.0044861,242.21089 96.4567556,268.894792 95.4288703,295.948733 L107.105647,295.948733 C108.380225,266.386752 107.845725,239.003888 105.502146,213.759025 L133.501741,213.759025 C133.707319,215.609218 133.912896,217.500527 134.077357,219.432952 C136.749859,248.254855 138.188898,273.787526 138.476706,295.948733 L148.262174,295.948733 C147.604328,276.336681 146.617558,258.821516 145.34298,243.403237 C144.931826,238.71608 144.520672,234.2345 144.027287,229.958497 C138.558937,185.224929 129.061277,161.994722 115.616537,160.30899 C115.246499,160.226759 114.958691,160.144528 114.753114,159.980067 C114.753114,160.103413 114.711998,160.226759 114.588652,160.30899 C113.560767,161.501337 112.245074,162.36476 110.764919,162.858145 C110.888265,162.940376 111.011611,163.022607 111.093842,163.145953 C120.550387,169.518842 127.211084,181.483427 131.117048,198.998592 L103.734183,198.998592 C100.033796,178.76981 92.797484,165.283955 81.9841307,158.499912" id="Fill-15" fill="#FFF5E8"></path>
                <path d="M121.126003,136.338705 L128.033392,136.667628 C127.046622,122.935081 125.073082,112.162843 121.989426,104.350915 C120.591502,100.814989 119.070232,97.8135642 117.425616,95.4288703 L83.3409393,122.071657 L87.9869808,157.430911 C98.2247183,162.611453 105.831069,164.420531 110.764919,162.858145 C112.286189,162.36476 113.560767,161.501337 114.588652,160.30899 C114.711998,160.226759 114.753114,160.144528 114.753114,159.980067 L115.205383,159.980067 L114.259729,151.140253 C121.084887,154.265024 123.38735,149.331175 121.126003,136.338705" id="Fill-17" fill="#F9DCB2"></path>
                <path d="M83.2998239,122.030542 C68.0048908,114.34196 67.3470442,105.872185 81.3673996,96.6212173 C95.4288703,87.2880188 107.434571,86.8768647 117.3845,95.3877549 L83.2998239,122.030542 Z" id="Stroke-19" stroke="#00464F" stroke-width="2.5413" stroke-linecap="round" stroke-linejoin="round"></path>
                <g id="Group-23" transform="translate(0.000000, 14.229015)" fill="#373E3E">
                    <path d="M265.975598,16.9395496 L265.975598,0 L0,0 L0,300.306966 L29.068596,300.306966 L29.068596,16.9395496 L151.058022,16.9395496 L271.197255,286.821111 L190.898856,286.821111 L177.454116,300.265851 L294.221885,300.265851 L167.997572,16.9395496 L265.975598,16.9395496 Z M149.701214,300.265851 L163.721569,300.265851 L195.627128,268.360292 L188.555278,261.370672 L149.701214,300.265851 L149.701214,300.265851 Z M364.817047,373.204591 L326.826407,373.204591 L364.817047,458.477955 L364.817047,409.59173 L364.817047,398.243877 L364.817047,373.204591 L364.817047,373.204591 Z M358.649735,552.303324 C358.649735,550.041976 359.225351,548.027321 360.376583,546.218243 C360.787737,545.601512 361.281122,544.943665 361.897853,544.285819 C362.062315,544.162473 362.267892,543.998011 362.391238,543.833549 C364.488124,541.901125 366.996164,540.914355 369.915358,540.914355 C372.752322,540.914355 375.137015,541.777779 377.151671,543.545741 C377.398363,543.792434 377.645056,544.039126 377.891748,544.285819 C380.153096,546.464936 381.304327,549.137437 381.304327,552.262209 C381.304327,555.428095 380.153096,558.100597 377.891748,560.238599 C375.712631,562.417715 373.04013,563.527831 369.915358,563.527831 C369.257512,563.527831 368.599665,563.486716 367.941818,563.404485 C365.59824,562.993331 363.583585,561.965446 361.856738,560.238599 C359.718736,558.141713 358.649735,555.469211 358.649735,552.303324 L358.649735,552.303324 Z M404.781227,517.437455 C399.1073,511.804644 392.775527,507.857564 385.785907,505.555101 C380.852058,503.869369 375.54817,503.047061 369.915358,503.047061 L369.175281,503.047061 L365.516009,495.235133 C365.310432,495.235133 365.06374,495.276248 364.817047,495.399594 C355.771657,496.098556 347.507459,498.771058 340.106685,503.334869 C336.406298,505.596217 332.870372,508.43318 329.498909,511.804644 C321.728096,519.575456 316.588669,528.497501 314.16286,538.611892 C314.121745,538.776354 314.080629,538.940815 314.080629,539.064162 C282.092839,532.855734 253.640974,520.521111 228.642804,501.97806 L0,472.827233 L0,589.636118 L38.2373328,589.636118 C47.3649542,597.612508 58.1783074,601.600703 70.5951617,601.600703 C83.0531314,601.600703 93.7842539,597.612508 102.788529,589.636118 L326.415253,589.636118 C322.879327,585.524577 319.960133,581.084112 317.65767,576.314724 L326.62083,576.314724 C328.799947,580.179573 331.595795,583.797729 334.967258,587.169193 C335.789567,587.991501 336.65299,588.81381 337.557529,589.636118 C346.644035,597.612508 357.416273,601.600703 369.874243,601.600703 C382.291097,601.600703 393.063335,597.612508 402.06761,589.636118 C403.013265,588.81381 403.876688,587.991501 404.740112,587.169193 C409.345038,582.605382 412.839848,577.507071 415.265657,571.915375 C417.814813,565.87141 419.090427,559.334059 419.090427,552.303324 C419.171621,538.653007 414.361118,527.058461 404.781227,517.437455 L404.781227,517.437455 Z" id="Fill-21"></path>
                </g>
                <polygon id="Fill-24" fill="#D5DBDB" points="364.817047 423.817663 430.47836 423.817663 430.47836 412.469809 364.817047 412.469809"></polygon>
                <path d="M177.454116,314.491783 L163.721569,314.491783 L149.701214,314.491783 L29.068596,314.491783 L0,314.491783 L0,487.053166 L228.683919,516.245108 C253.640974,534.747043 282.133954,547.122782 314.121745,553.331209 C314.121745,553.166748 314.16286,553.002286 314.203975,552.87894 C316.629785,542.764549 321.728096,533.842504 329.540024,526.071691 C332.911488,522.700228 336.447413,519.863264 340.1478,517.601917 C347.548574,512.996991 355.812772,510.365604 364.858163,509.666642 C365.104855,509.543296 365.351548,509.502181 365.557125,509.502181 C367.037279,509.41995 368.476319,509.378834 369.956474,509.378834 C373.985784,509.378834 377.891748,509.789989 381.674366,510.612297 L364.858163,472.703887 L326.867522,387.430524 L294.263001,314.491783 L177.454116,314.491783 L177.454116,314.491783 Z" id="Fill-26" fill="#BB7419"></path>
                <path d="M396.393683,27.5473258 L479.159007,27.5473258 L479.159007,14.2259324 L396.393683,14.2259324 L396.393683,27.5473258 Z M0,14.2259324 L265.975598,14.2259324 L265.975598,1.86925598e-14 L0,1.86925598e-14 L0,14.2259324 Z" id="Fill-27" fill="#4B5353"></path>
                <polygon id="Fill-28" fill="#2D3131" points="734.485713 608.713669 700.524383 591.733004 479.159007 591.733004 479.159007 27.5473258 396.393683 27.5473258 396.393683 39.6352568 415.759042 39.6352568 430.47836 39.6352568 430.47836 376.987209 433.109746 385.333638 430.47836 376.987209 430.47836 412.469809 430.47836 423.817663 430.47836 608.713669"></polygon>
                <path d="M430.47836,376.987209 L433.109746,385.333638 M430.47836,376.987209 L415.759042,329.745601 L415.759042,39.6352568" id="Stroke-29" stroke="#2D3131" stroke-width="9.5934" stroke-linejoin="round"></path>
                <path d="M162.076953,301.992698 L168.038687,287.108919 C146.288634,282.915147 126.142083,272.389602 107.599032,255.532283 C82.1485924,222.393261 71.2118929,198.464092 74.7478183,183.78589 C61.4264249,174.493807 54.5601512,179.386541 54.1901125,198.422976 L53.737843,226.915957 C56.0814214,245.294546 67.3470442,260.67171 87.6169421,273.047448 C106.283339,287.273381 131.117048,296.935503 162.076953,301.992698" id="Fill-30" fill="#00464F"></path>
                <path d="M178.070848,286.163265 L167.997572,287.150035 L162.035837,302.033814 C166.147378,310.174665 171.697959,311.449243 178.76981,305.775316 C184.649314,301.005928 183.004697,295.825387 173.794845,290.274806 L178.070848,286.163265 Z" id="Fill-31" fill="#F9DCB2"></path>
            </g>
            <g id="Group-101" transform="translate(1002.900066, 27.590734)">
                <path d="M126.265429,568.626143 C125.689813,570.764144 128.3212,571.915375 134.200703,572.079837 C141.437016,572.285414 144.273979,570.846375 142.752709,567.721603 C141.84817,565.994756 141.149208,564.679063 140.655823,563.815639 C136.955436,567.84495 133.213934,567.84495 129.3902,563.815639 C128.979046,564.596832 128.197853,565.748064 127.005506,567.310449 C126.553237,567.762719 126.34766,568.214988 126.265429,568.626143" id="Fill-33" fill="#353A38"></path>
                <path d="M130.335855,562.171023 C129.883585,562.787754 129.554662,563.322254 129.30797,563.774524 C133.131703,567.803834 136.914321,567.803834 140.573592,563.774524 C140.368015,563.36337 140.162438,563.075562 140.039092,562.787754 C138.764514,560.567522 137.078782,559.457406 135.023012,559.41629 C132.473856,559.375175 130.911471,560.320829 130.335855,562.171023" id="Fill-35" fill="#B25B20"></path>
                <path d="M85.0677866,571.915375 C89.2615586,571.833145 90.3716747,569.448451 88.398135,564.720178 C81.9018999,568.91395 72.6920477,569.36622 60.8508092,566.159218 C48.2694932,569.859605 46.5015305,571.750914 55.5058057,571.915375 L85.0677866,571.915375 Z" id="Fill-37" fill="#353A38"></path>
                <path d="M87.1646726,562.171023 C86.9179801,559.704098 85.4789407,558.676213 82.806439,559.005136 C80.0928218,559.292944 78.612667,560.033021 78.3248591,561.266484 C70.5540463,563.36337 64.7156579,564.966871 60.8096938,566.118102 C72.6509323,569.325105 81.8607845,568.83172 88.3570195,564.679063 C88.0692117,563.938986 87.6580575,563.116677 87.1646726,562.171023" id="Fill-39" fill="#B25B20"></path>
                <path d="M124.90862,5.34500351 C121.372695,1.80907811 117.055577,-9.49463354e-15 111.998381,-9.49463354e-15 C106.941186,-9.49463354e-15 102.665183,1.7679627 99.088142,5.34500351 C97.690218,6.7429275 96.5389865,8.26419773 95.6755628,9.9088142 C92.797484,8.09973609 89.5904819,7.19519703 86.0134411,7.19519703 C80.9562455,7.19519703 76.5980118,9.00427514 73.020971,12.581316 C69.4439302,16.1583568 67.6348521,20.475475 67.6348521,25.5326706 C67.6348521,26.1905172 67.6759675,26.8072484 67.7581983,27.4239795 L66.8536593,27.4239795 C62.5776565,27.4239795 58.9595002,28.9041344 55.9580752,31.9055594 C52.9566501,34.9480999 51.4353799,38.5662561 51.4353799,42.8422589 C51.4353799,47.1182617 52.9566501,50.7364179 55.9580752,53.737843 C57.1093067,54.8890745 58.3427691,55.834729 59.6995777,56.5748064 C57.232653,59.2473081 55.9991906,62.4131948 55.9991906,66.1546973 C55.9991906,70.0606614 57.3971146,73.3910097 60.1518472,76.1457423 C62.6187719,78.612667 65.4968507,79.9694756 68.827199,80.2572835 C67.92266,81.7785537 67.5115059,83.5465164 67.5115059,85.4789407 C67.5115059,88.3159041 68.4982757,90.700598 70.4718155,92.6741378 C72.4864707,94.6887929 74.9122799,95.6755628 77.7492433,95.6755628 C80.5862067,95.6755628 82.9709006,94.6887929 84.9444404,92.6741378 C85.5611716,92.098522 86.0545565,91.4817908 86.506826,90.8239442 C87.5347113,91.3584446 88.7270582,91.6051371 90.0427514,91.6051371 C92.3452145,91.6051371 94.2776388,90.7828288 95.8400245,89.1793278 C96.6623327,88.3570195 97.3201793,87.4113651 97.7313334,86.4245952 C100.074912,88.0280962 102.747414,88.8504045 105.789954,88.8504045 C108.380225,88.8504045 110.723803,88.2336733 112.861805,87.0413264 C113.314074,88.7681737 114.259729,90.2894439 115.616537,91.6051371 C117.713423,93.702023 120.221464,94.7299083 123.181773,94.7299083 C126.142083,94.7299083 128.650123,93.702023 130.747009,91.6051371 C132.597202,89.7960589 133.666203,87.6169421 133.87178,85.1500174 C134.406281,85.1911328 135.023012,85.2322483 135.639743,85.2322483 C139.257899,85.2322483 142.341555,83.9576705 144.89071,81.408515 C147.439866,78.8593595 148.714444,75.7757036 148.714444,72.1986628 C148.714444,70.5951617 148.467751,69.1150069 147.933251,67.7170829 C149.29006,66.9770055 150.564637,66.031351 151.674753,64.8390041 C154.676178,61.8375791 156.197449,58.2194228 156.197449,53.9845354 C156.197449,49.7085326 154.676178,46.0903764 151.674753,43.0889514 C150.276829,41.6910274 148.714444,40.6220267 147.028712,39.8819493 C148.138828,37.6206016 148.673328,35.1125615 148.673328,32.3989443 C148.673328,27.6295566 146.987596,23.5180154 143.575017,20.1465517 C140.162438,16.7750879 136.092012,15.0893561 131.322625,15.0893561 C130.870355,15.0893561 130.459201,15.0893561 130.048047,15.1304715 C129.3902,11.388969 127.704468,8.1408515 124.90862,5.34500351" id="Fill-41" fill="#05444C"></path>
                <path d="M62.0842715,173.424806 L67.3470442,165.77734 C61.0152708,166.024032 55.2179978,165.941801 49.9141097,165.448416 C52.7510731,169.888881 56.8214988,172.520267 62.0842715,173.424806" id="Fill-43" fill="#553117"></path>
                <path d="M49.9141097,165.448416 C47.5294158,165.242839 45.2680682,164.955031 43.047836,164.584993 L39.0185256,174.576038 C36.0171006,182.100158 36.8394088,187.075123 41.5265657,189.542048 C46.1726072,191.967857 51.147572,189.33647 56.4103447,181.647888 L62.0842715,173.383691 C56.8214988,172.520267 52.7510731,169.888881 49.9141097,165.448416" id="Fill-45" fill="#B25B20"></path>
                <path d="M88.603712,133.419511 C90.001636,127.663353 90.1249822,123.222889 88.8915199,120.015886 C76.1046269,129.349085 63.1532722,144.479556 49.9552251,165.448416 C55.2591132,165.900686 61.0563862,166.024032 67.3881596,165.77734 C69.526161,165.653993 71.7052778,165.530647 73.9666255,165.366185 C80.8740146,155.498487 85.7667486,144.849595 88.603712,133.419511" id="Fill-47" fill="#F0D99C"></path>
                <path d="M88.8504045,120.015886 C87.8636346,117.466731 86.0545565,115.698768 83.3820547,114.753114 C77.1736276,114.753114 70.1017768,118.37127 62.1253869,125.566467 C54.1489971,132.761664 45.1036065,145.137403 35.0303307,162.775915 C37.5383708,163.474877 40.2108726,164.091608 43.047836,164.584993 C45.2269528,164.955031 47.5294158,165.242839 49.9141097,165.448416 C63.1121568,144.479556 76.1046269,129.349085 88.8504045,120.015886" id="Fill-49" fill="#FDECBC"></path>
                <path d="M26.067171,157.184219 L12.087931,147.563212 C11.8001231,147.480981 11.4300844,147.645443 11.0189303,148.056597 C10.8544687,148.221059 10.7311224,148.426636 10.5666608,148.632213 C10.4021991,148.878905 10.2788529,149.248944 10.2788529,149.701214 C10.2788529,150.81133 10.8133533,152.620408 11.8412385,155.128448 C13.485855,159.034412 16.0761259,164.420531 19.6120513,171.369036 C24.0936312,180.249964 28.2462878,186.088353 31.9877902,188.925316 C34.8247536,190.158779 37.8261787,190.816625 40.95095,190.939971 C44.0757212,191.022202 47.0771463,190.035432 49.8318789,187.979662 C52.6277269,185.882776 54.0667663,183.827005 54.1078817,181.730119 C54.0667663,180.003272 52.8744193,178.399771 50.5719563,176.837385 L26.067171,157.184219 Z" id="Fill-51" fill="#B25B20"></path>
                <path d="M133.049472,113.396305 C123.017312,111.093842 117.83677,109.079187 117.548962,107.270109 C117.220038,105.461031 116.973346,103.487491 116.808884,101.390605 C116.562192,97.9369104 116.39773,94.6065621 116.315499,91.4406754 C111.998381,95.3466395 107.146763,97.4435255 101.719528,97.7724488 L101.719528,98.6358724 C100.527181,104.39203 94.9354854,109.490341 85.0266712,113.971921 C75.117857,118.453501 70.4718155,125.114198 71.1707775,133.995126 C71.8286241,142.876055 79.311629,148.673328 93.6609076,151.428061 C108.010186,154.141678 120.673733,149.043367 131.610433,136.174243 C142.588247,123.305119 143.081632,115.698768 133.049472,113.396305" id="Fill-53" fill="#B25B20"></path>
                <path d="M116.808884,73.719933 C116.726654,67.1003517 114.300844,64.5100808 109.490341,66.031351 C104.679838,67.5115059 102.089567,73.8021638 101.719528,84.903325 L101.719528,97.8135642 C107.146763,97.4846409 111.998381,95.3466395 116.315499,91.4817908 C116.109922,85.0677866 116.274384,79.1471673 116.808884,73.719933" id="Fill-55" fill="#553117"></path>
                <path d="M103.40526,234.933462 C104.433145,209.524138 95.3877549,197.066168 76.2690885,197.600668 C68.8683144,197.76513 62.8243489,201.301055 58.0960766,208.208444 C67.0181209,253.024243 78.612667,294.386347 92.9619456,332.376987 L103.40526,234.933462 Z" id="Fill-57" fill="#ABB9B9"></path>
                <path d="M45.4736452,278.186875 C45.2680682,285.340957 45.1858374,292.536154 45.1858374,299.813581 C45.350299,332.006949 48.0639162,365.433778 53.2855734,400.176301 C59.7406931,442.730752 67.223698,496.42748 75.816819,561.307599 L89.4671357,566.940411 C87.7814038,547.246128 88.9326353,469.085731 92.9208302,332.376987 C78.5715516,294.386347 66.9770055,253.024243 58.0549612,208.208444 C50.9008796,216.143719 46.7071076,239.456157 45.4736452,278.186875" id="Fill-59" fill="#D5DDDB"></path>
                <path d="M68.827199,191.063318 C59.9462701,200.396516 54.3956896,211.250985 52.1754573,223.585608 C49.9552251,235.879116 55.7113827,247.555893 69.4439302,258.615939 C83.1764777,269.593754 99.2526036,275.678835 117.590077,276.788951 C135.968666,277.857952 146.535327,274.19868 149.37229,265.770021 C152.209254,257.300246 152.250369,245.582354 149.536752,230.575228 C146.823135,215.568103 141.066977,203.151249 132.309395,193.406896 C123.551812,183.662544 113.026267,178.523117 100.691643,177.947501 C88.3570195,177.33077 77.7492433,181.689004 68.827199,191.063318" id="Fill-61" fill="#D5DDDB"></path>
                <path d="M152.661523,273.581949 C152.538177,264.16652 152.209254,255.244475 151.551407,246.815816 C149.536752,219.26849 138.88786,205.947097 119.604732,206.81052 C100.280489,207.632829 90.9884059,229.012843 91.7284833,270.991678 C92.4274453,312.970513 104.92653,410.5785 129.266854,563.815639 L140.532477,563.815639 C141.560362,465.796498 144.191749,395.941414 148.426636,354.209271 C151.510292,324.277251 152.908216,297.428888 152.661523,273.581949" id="Fill-63" fill="#D5DDDB"></path>
                <path d="M133.255049,113.437421 C123.510696,132.021587 110.888265,141.066977 95.3877549,140.614708 C83.3820547,139.422361 79.3527444,130.82924 83.3409393,114.753114 C76.3924348,117.055577 69.6083918,125.278659 62.9888106,139.463476 C56.4103447,153.648293 58.5483461,162.159183 69.4028148,164.996147 C68.7860836,173.054767 68.621622,180.126618 68.9505453,186.129468 C71.3352391,189.542048 75.4056649,192.008972 81.1207071,193.489127 C85.0677866,194.517012 89.7960589,195.092628 95.3466395,195.215974 L96.9090252,195.215974 C107.105647,195.092628 115.452076,193.612473 121.86608,190.734394 L121.86608,190.734394 C122.565042,180.167734 126.100967,170.834535 132.473856,162.81703 C138.80563,154.758409 143.82171,146.041942 147.480981,136.626513 C150.112368,126.635468 148.262174,120.015886 141.930401,116.767769 C139.093437,114.629768 136.174243,113.519651 133.255049,113.437421" id="Fill-65" fill="#FDECBC"></path>
                <path d="M96.991256,195.25709 L95.4288703,195.25709 C89.8782898,195.133743 85.1500174,194.558128 81.2029379,193.530242 L81.2029379,200.108708 C85.1911328,201.013247 90.2483285,201.506632 96.292294,201.671094 C96.5389865,201.671094 96.7445635,201.671094 96.991256,201.712209 L96.991256,195.25709 L96.991256,195.25709 Z" id="Fill-67" fill="#FAFAFB"></path>
                <path d="M68.9916607,186.170584 C69.1150069,188.226354 69.2383531,190.117663 69.4439302,191.926741 C70.0606614,195.832705 73.9666255,198.546323 81.1618225,200.108708 L81.1618225,193.530242 C75.4467803,192.050088 71.41747,189.583163 68.9916607,186.170584 M121.948311,197.518437 L121.948311,190.77551 C115.534307,193.653589 107.187878,195.133743 96.991256,195.25709 L96.991256,201.712209 C107.599032,201.917786 115.904345,200.519862 121.948311,197.518437" id="Fill-69" fill="#6A7874"></path>
                <path d="M121.948311,190.734394 L121.948311,190.734394 L121.948311,197.518437 C125.319775,195.832705 127.992276,193.653589 129.924701,190.981087 C130.37697,188.884201 130.705893,186.7462 130.993701,184.567083 C128.567892,187.075123 125.525352,189.130893 121.948311,190.734394" id="Fill-71" fill="#2E3E35"></path>
                <path d="M137.284359,162.36476 C141.190323,155.82741 144.602903,147.439866 147.439866,137.161013 C147.480981,136.996551 147.522097,136.790974 147.563212,136.626513 C143.903941,146.041942 138.88786,154.758409 132.556087,162.81703 C126.183198,170.875651 122.647273,180.167734 121.948311,190.734394 C125.566467,189.130893 128.567892,187.034007 130.993701,184.525967 C131.158163,182.552428 131.281509,180.537772 131.322625,178.482002 C131.36374,174.247114 133.33728,168.860995 137.284359,162.36476" id="Fill-73" fill="#F0D99C"></path>
                <path d="M75.7345882,48.0639162 C72.116432,59.2061927 72.5687015,69.9373151 77.0913968,80.2572835 C78.9827057,84.9855558 81.5729766,89.0148661 84.7799787,92.3040991 C86.8357493,94.4421005 89.8782898,95.4699857 93.8664847,95.3466395 C97.8546796,95.1821779 102.295144,93.0852919 107.270109,89.0148661 C112.245074,84.9444404 116.973346,79.3938598 121.496041,72.4042398 C130.418086,59.7818085 132.227164,49.0095706 126.923276,40.1286417 C120.673733,29.6442118 111.299419,25.573786 98.8003341,27.9584799 C87.000211,30.2198275 79.311629,36.962755 75.7345882,48.0639162" id="Fill-75" fill="#B25B20"></path>
                <path d="M86.2190181,61.5086558 C86.1367873,65.2501582 85.0677866,68.621622 83.0531314,71.623047 M91.9340604,72.5687015 C92.1807528,72.6920477 92.4274453,72.8565094 92.6330223,73.0620864 C93.0852919,73.514356 93.3319843,74.0488563 93.3319843,74.7478183 C93.3319843,75.4056649 93.0852919,75.9812806 92.6330223,76.4335502 C92.1807528,76.8858197 91.6051371,77.1325122 90.9472905,77.1325122 C90.4950209,77.1325122 90.1249822,77.0091659 89.7549435,76.8035889 C89.6727127,76.8858197 89.5904819,76.9680505 89.5082511,77.0502813 C88.8092891,77.7492433 87.9458654,78.1192821 86.9179801,78.1192821 C85.9312103,78.1192821 85.0677866,77.7492433 84.3688246,77.0502813 C84.2865938,76.9680505 84.204363,76.8858197 84.1221321,76.7624735 C83.7520934,77.0091659 83.3409393,77.1325122 82.8886698,77.1325122 C82.1897078,77.1325122 81.6552074,76.8858197 81.2029379,76.4335502 C80.7506684,75.9812806 80.5039759,75.4056649 80.5039759,74.7478183 C80.5039759,74.0488563 80.7506684,73.514356 81.2029379,73.0620864 C81.3673996,72.8565094 81.614092,72.6920477 81.8607845,72.5687015" id="Stroke-77" stroke="#553117" stroke-width="1.2706" stroke-linecap="round" stroke-linejoin="round"></path>
                <path d="M138.600053,56.4925755 C138.600053,53.3678043 137.489936,50.7364179 135.269704,48.5161857 C134.694088,47.9405699 134.077357,47.447185 133.460626,47.0360309 C134.282934,45.8436839 134.694088,44.5279908 134.694088,43.047836 C134.694088,41.1154116 133.995126,39.4707951 132.638318,38.0728711 C131.733779,37.1683321 130.705893,36.5927163 129.554662,36.263793 C129.760239,35.5237156 129.883585,34.7014074 129.883585,33.8790992 C129.883585,31.6999823 129.102392,29.8086734 127.581122,28.2462878 C126.059852,26.7250175 124.168543,25.9438247 121.989426,25.9438247 C120.221464,25.9438247 118.659078,26.4372097 117.302269,27.465095 C116.973346,26.5605559 116.438846,25.7793631 115.698768,25.0804011 C114.300844,23.6824771 112.573997,22.9835151 110.600457,22.9835151 C110.024841,22.9835151 109.490341,23.0246305 108.955841,23.1479767 C108.585802,22.2434377 108.010186,21.4211294 107.270109,20.681052 C105.789954,19.2008972 103.980876,18.4608198 101.842875,18.4608198 C99.7459886,18.4608198 97.9369104,19.2008972 96.4567556,20.681052 C96.3334094,20.8043983 96.2511786,20.8866291 96.1689477,21.0099753 C95.593332,20.8043983 94.9766008,20.681052 94.3598696,20.681052 C92.9619456,20.681052 91.7284833,21.174437 90.700598,22.1612069 C90.4539055,22.4078993 90.2072131,22.6957072 90.0427514,23.0246305 C88.8915199,22.2845531 87.5758267,21.9145144 86.1367873,21.9145144 C84.0399013,21.9145144 82.2719386,22.6545918 80.7917838,24.0936312 C79.311629,25.573786 78.612667,27.3417487 78.612667,29.4386347 C78.612667,30.3020584 78.7360132,31.1243666 78.9827057,31.864444 C78.818244,31.8233286 78.6537824,31.8233286 78.5304362,31.8233286 C75.9812806,31.8233286 73.7610484,32.7278676 71.9519703,34.5780612 C70.1428922,36.3871393 69.2383531,38.5662561 69.2383531,41.1154116 C69.2383531,41.2798733 69.2383531,41.4854503 69.2794686,41.6910274 C69.0327761,41.649912 68.827199,41.649912 68.5805066,41.649912 C67.4703904,41.649912 66.524736,42.0610661 65.7435432,42.8422589 C64.9623503,43.6234517 64.5511962,44.5691062 64.5511962,45.6792223 C64.5511962,46.5837613 64.7978887,47.3649542 65.332389,48.0639162 C64.0989267,49.3796093 63.4821955,50.9831104 63.4821955,52.8333039 C63.4821955,54.8068437 64.1811575,56.533691 65.5790815,57.931615 C66.9770055,59.3706544 68.7038528,60.0696164 70.718508,60.0696164 C72.6920477,60.0696164 74.418895,59.3706544 75.816819,57.931615 C77.214743,56.533691 77.913705,54.8068437 77.913705,52.8333039 C77.913705,51.9698803 77.7903588,51.147572 77.5025509,50.4074946 C77.8314742,50.44861 78.1192821,50.44861 78.4482053,50.44861 C81.0384763,50.44861 83.2175931,49.544071 85.0266712,47.6938775 C86.7535185,46.0081456 87.6580575,43.952375 87.7402884,41.5676811 C88.2747887,41.6910274 88.8092891,41.7732582 89.3437894,41.7732582 C91.1117521,41.7732582 92.5919069,41.156527 93.8253693,39.9230647 C94.9354854,38.8129486 95.5522166,37.4972554 95.6755628,35.9759852 L95.7577936,35.9759852 C96.0867169,37.2094475 96.7445635,38.3195636 97.7313334,39.2652181 C99.2114882,40.7453729 101.020566,41.4854503 103.158568,41.4854503 C103.898645,41.4854503 104.638723,41.4032195 105.337685,41.1976424 C105.461031,43.8701442 106.530031,46.1726072 108.462456,48.146147 C110.559342,50.243033 113.108497,51.3120337 116.109922,51.3120337 C116.521076,51.3120337 116.932231,51.2709183 117.3845,51.2298029 C116.562192,52.8333039 116.109922,54.6012666 116.109922,56.533691 C116.109922,59.6584622 117.220038,62.2898486 119.399155,64.4689654 C121.578272,66.6891976 124.250774,67.7993137 127.375545,67.7993137 C130.500316,67.7993137 133.131703,66.6891976 135.31082,64.4689654 C137.489936,62.2487332 138.600053,59.6173468 138.600053,56.4925755" id="Fill-79" fill="#05444C"></path>
                <path d="M121.454926,62.9888106 C120.262579,64.1811575 119.522502,65.7435432 119.234694,67.6348521 C118.946886,69.526161 118.864655,70.9652004 118.988001,71.9519703 C119.111347,72.9387402 119.810309,73.3910097 121.084887,73.3910097 C122.359465,73.3910097 123.716274,72.9798556 125.114198,72.116432 C126.512122,71.2118929 127.622238,70.019546 128.40343,68.5393911 C129.143508,67.0592363 129.184623,65.6201969 128.444546,64.0989267 C127.704468,62.6187719 126.635468,61.7553482 125.237544,61.5086558 C123.921851,61.3853095 122.647273,61.8375791 121.454926,62.9888106" id="Fill-81" fill="#B25B20"></path>
                <path d="M181.483427,189.418701 L175.028307,193.859166 L142.876055,218.446182 C142.177093,219.104028 141.807055,219.72076 141.765939,220.337491 C141.724824,220.460837 141.724824,220.584183 141.724824,220.748645 C141.724824,221.612069 142.012632,222.393261 142.588247,223.051108 C143.040517,223.708955 143.862825,223.996762 145.014057,223.955647 C145.178518,223.914532 145.384095,223.914532 145.589672,223.914532 C146.987596,223.667839 150.975791,221.817646 157.513142,218.322836 C163.680454,215.033603 167.750879,212.81337 169.765535,211.703254 C171.697959,210.593138 174.411576,208.948522 177.947501,206.81052 C181.27785,204.713634 184.978237,202.24671 189.007547,199.450862 C190.487702,198.422976 191.680049,197.518437 192.625703,196.737245 C194.064743,195.380436 195.051513,194.27032 195.586013,193.448012 C196.202744,192.337895 196.572783,191.227779 196.655014,190.117663 C196.696129,188.925316 195.997167,187.856316 194.558128,186.992892 C193.077973,186.047238 191.638933,185.471622 190.117663,185.30716 C188.596393,185.019352 185.718314,186.417276 181.483427,189.418701" id="Fill-83" fill="#B25B20"></path>
                <path d="M170.217804,180.661119 C180.743349,191.433356 188.26747,196.038283 192.790165,194.475897 C197.31286,192.954627 198.258515,189.418701 195.709359,183.909236 C189.542048,172.396921 180.990042,159.651143 170.012227,145.754134 C167.380841,154.676178 163.310415,161.871375 157.759834,167.380841 L170.217804,180.661119 Z" id="Fill-85" fill="#B25B20"></path>
                <path d="M169.971112,145.754134 C169.518842,145.137403 169.025457,144.520672 168.532072,143.903941 C165.407301,150.975791 160.432336,157.595373 153.648293,163.680454 L156.36191,165.900686 L157.718719,167.339725 C163.269299,161.871375 167.380841,154.676178 169.971112,145.754134" id="Fill-87" fill="#553117"></path>
                <path d="M127.33443,126.306544 C126.799929,129.636893 127.169968,133.255049 128.526777,137.161013 L130.459201,142.588247 C130.37697,142.341555 131.89824,144.80848 135.023012,149.906791 C138.147783,155.046217 143.040517,160.679029 149.701214,166.928571 C151.099138,165.85957 152.414831,164.79057 153.648293,163.680454 C160.432336,157.554257 165.407301,150.975791 168.532072,143.903941 C169.27215,142.094863 169.929996,140.285784 170.505612,138.435591 C166.147378,133.419511 162.570337,129.678008 159.77449,127.211084 C157.019757,124.744159 154.182794,122.647273 151.263599,120.838195 C148.38552,119.070232 145.466326,117.548962 142.506017,116.274384 C139.586822,115.040922 136.462051,115.575422 133.131703,117.83677 C129.801354,120.180348 127.86893,122.976196 127.33443,126.306544" id="Fill-89" fill="#FDECBC"></path>
                <path d="M142.917171,218.487297 C142.259324,218.446182 141.519247,218.816221 140.696939,219.597413 C139.011207,220.954222 138.230014,222.722185 138.271129,224.901301 C138.312245,226.093648 138.600053,227.450457 139.216784,228.889496 C140.738054,233.001038 141.478131,235.673539 141.354785,236.824771 C141.190323,237.934887 140.820285,239.086118 140.162438,240.278465 C139.792399,241.018543 139.669053,241.594159 139.751284,242.087544 C139.751284,242.416467 139.87463,242.704275 140.162438,242.950967 L140.655823,242.786506 C140.696939,242.334236 140.902516,241.840851 141.272554,241.347466 C142.053747,240.278465 142.629363,239.045003 142.958286,237.605964 C143.081632,237.318156 143.122748,236.989232 143.163863,236.660309 C143.122748,236.989232 143.081632,237.318156 142.958286,237.605964 C142.629363,239.003888 142.053747,240.23735 141.272554,241.347466 C140.8614,241.840851 140.655823,242.334236 140.655823,242.786506 C140.614708,243.238775 140.779169,243.649929 141.149208,244.019968 L142.259324,242.909852 C142.177093,242.375351 142.38267,241.75862 142.876055,241.141889 C143.657248,240.114004 144.232864,238.839426 144.644018,237.400387 C144.685133,237.071463 144.726249,236.74254 144.767364,236.413617 C144.726249,236.74254 144.685133,237.071463 144.644018,237.400387 C144.232864,238.839426 143.657248,240.072888 142.876055,241.141889 C142.38267,241.75862 142.177093,242.375351 142.259324,242.909852 C142.30044,243.238775 142.423786,243.526583 142.711594,243.814391 L144.232864,241.75862 C144.109518,241.22412 144.273979,240.648504 144.767364,240.031773 C145.384095,239.127234 145.79525,237.976002 146.000827,236.578078 C145.836365,237.976002 145.425211,239.127234 144.767364,240.031773 C144.273979,240.648504 144.068402,241.22412 144.232864,241.75862 C144.273979,242.005313 144.438441,242.21089 144.644018,242.375351 C145.260749,241.553043 145.671903,241.018543 145.959711,240.77185 C147.275404,239.291696 147.933251,237.441502 147.933251,235.303501 C147.933251,234.316731 147.892136,233.288845 147.809905,232.219845 C147.480981,229.095073 146.699789,225.435802 145.466326,221.283145 C145.055172,220.049683 144.479556,219.186259 143.698364,218.692874 C143.451671,218.528413 143.204979,218.446182 142.917171,218.487297" id="Fill-91" fill="#B25B20"></path>
                <path d="M146.000827,236.619194 C145.836365,238.017118 145.425211,239.168349 144.767364,240.072888 C144.273979,240.68962 144.068402,241.265235 144.232864,241.799736 M144.726249,236.454732 C144.685133,236.783655 144.644018,237.112579 144.602903,237.441502 C144.191749,238.880541 143.616133,240.114004 142.83494,241.183004 C142.341555,241.799736 142.135978,242.416467 142.218209,242.950967 M143.122748,236.660309 C143.081632,236.989232 143.040517,237.318156 142.917171,237.605964 C142.588247,239.003888 142.012632,240.23735 141.231439,241.347466 C140.820285,241.840851 140.614708,242.334236 140.614708,242.786506" id="Stroke-93" stroke="#6F9291" stroke-width="1.2706" stroke-linecap="round" stroke-linejoin="round"></path>
                <path d="M31.4944053,99.787104 C30.46652,96.0867169 28.5752111,94.195408 25.8204785,94.1542926 C23.0657459,94.0720618 21.873399,96.0044861 22.2434377,99.9104502 L8.75758267,102.911875 L45.350299,102.911875 L31.4944053,99.787104 Z" id="Fill-95" fill="#AAB7B8"></path>
                <polygon id="Fill-97" fill="#05444C" points="52.9977656 102.911875 45.3914144 102.911875 8.75758267 102.911875 0 102.911875 21.4211294 169.559957 74.4600104 169.559957"></polygon>
                <path d="M26.9305946,142.053747 C29.0274806,142.053747 30.4254046,141.765939 31.2065974,141.190323 C31.9877902,140.655823 31.0421358,139.956861 28.4107494,139.093437 C25.8204785,138.271129 23.8058233,138.024437 22.3256685,138.312245 C24.7103624,137.448821 26.4372097,136.133128 27.465095,134.447396 C28.5340957,132.761664 25.3270935,133.460626 17.885204,136.503167 L12.2523927,140.943631 L11.0189303,137.078782 C10.4021991,142.547132 10.1555067,146.288634 10.2377375,148.262174 L10.3199683,149.906791 C10.3199683,151.222484 10.7311224,152.250369 11.5534307,152.990447 C12.3757389,153.730524 13.4447396,153.894986 14.7193174,153.442716 C16.0350105,153.031562 17.1040112,152.497062 17.9674349,151.7981 C18.8308585,151.140253 20.0643209,149.577867 21.7089373,147.152058 C23.9291696,148.097713 25.4093244,148.344405 26.1905172,147.85102 C26.97171,147.357635 26.6839021,146.411981 25.2037473,145.014057 C27.6295566,145.466326 28.9863652,145.425211 29.3152885,144.849595 C29.5208655,144.397326 28.7396727,143.451671 26.9305946,142.053747" id="Fill-99" fill="#B25B20"></path>
            </g>
        </g>
    </g>
</svg>