<svg width="86" height="138" viewBox="0 0 86 138" fill="none" xmlns="http://www.w3.org/2000/svg">
<g clip-path="url(#clip0)">
<path d="M69.0917 102.981C68.3412 102.043 67.1947 101.5 65.9906 101.5H45.7752H19.7615C18.5574 101.5 17.4192 102.043 16.6686 102.981L12.5859 108.044H41.0327H44.7194H73.1579L69.0917 102.981Z" fill="#404040"/>
<path d="M76.9673 125H9V109.832C9 108.819 10.1707 108 11.6198 108H74.3802C75.0761 108 75.7392 108.195 76.2304 108.538C76.7216 108.882 77 109.351 77 109.838L76.9673 125Z" fill="black"/>
<path d="M79.6988 130.515H5.95508L5.96333 126.622C5.96333 125.724 6.69738 125 7.59639 125H78.074C78.5029 125 78.9235 125.173 79.2287 125.477C79.5339 125.782 79.7071 126.194 79.7071 126.63L79.6988 130.515Z" fill="#252525"/>
<path d="M43.0616 66.2999L42.9297 66.3905L43.0616 66.4893V66.2999Z" fill="#FF9900"/>
<path d="M42.7988 66.2999V66.4893L42.9308 66.3905L42.7988 66.2999Z" fill="#FF9900"/>
<path d="M65.595 100.701V101.5H20.166V100.726C20.1743 98.5362 21.9475 96.7663 24.1415 96.7663H23.0115C35.7461 94.198 38.5339 81.7101 39.07 74.4496C39.301 71.3461 39.1112 69.1976 39.1112 69.1976L42.8063 66.5058L42.93 66.407L43.062 66.5058L46.3528 68.9095L46.7487 69.1976C46.7487 69.1976 46.724 69.4857 46.7075 70.0208C46.6663 70.9181 46.6415 72.4986 46.7735 74.4578C47.2766 81.5784 49.9406 93.6794 62.0319 96.6017C62.2711 96.6593 62.5186 96.7169 62.7742 96.7663H61.6195C62.6753 96.7663 63.6898 97.1862 64.4321 97.927C64.9929 98.4786 65.3723 99.1783 65.5208 99.9356C65.5455 100.059 65.562 100.191 65.5785 100.314C65.5868 100.438 65.595 100.569 65.595 100.701Z" fill="#FF9900"/>
<path d="M20.8084 18.1596L28.9573 49.4327L23.6457 50.5275C5.49224 42.7401 5.51698 24.5476 5.52523 23.782V23.7244V23.6668L5.53348 18.1431L20.8084 18.1596ZM25.0891 12.6524L0.015689 12.6195L-0.000806643 23.6503C-0.000806643 23.6503 -0.561657 47.3088 23.1261 56.2816L35.77 53.6721L25.0891 12.6524Z" fill="#CB7A00"/>
<path d="M80.4648 18.2501L80.4566 23.7737V23.8067V23.8643C80.4648 24.6545 80.4318 42.8553 62.2619 50.5933L57.1235 49.515L66.3528 18.2254L80.4648 18.2501ZM85.9991 12.7018H62.2206L50.1211 53.6885L62.7567 56.3392C86.4692 47.4405 85.9826 23.782 85.9826 23.782L85.9991 12.7018Z" fill="#CB7A00"/>
<path d="M74.2221 3.78668L43.0288 3.21045H43.0206H43.0123L11.8191 3.69613C11.8191 3.69613 10.1448 67.5512 42.9134 71.5519C42.9134 71.5519 42.9134 71.5519 42.9216 71.5519C75.7067 67.6417 74.2221 3.78668 74.2221 3.78668Z" fill="#FF9900"/>
<path d="M76.7282 6.31383H9.31055L9.31879 0.00817871H76.7365L76.7282 6.31383Z" fill="#E88C03"/>
<path opacity="0.5" d="M71.9292 6.30566L64.0195 6.39621L64.0278 0.0905512L71.9457 0L71.9292 6.30566Z" fill="#FCE4EA"/>
<path opacity="0.5" d="M66.0233 6.31384C66.0563 12.5207 65.5531 54.4377 46.2285 68.7283C68.7863 57.2612 70.6091 16.365 70.708 6.31384H66.0233Z" fill="#ECCD8B"/>
<path d="M42.7971 14.1095L46.6158 21.831H55.1606L48.9829 29.0834L50.4346 37.5705L42.7971 33.5615L35.1596 37.5705L36.6195 29.0834L30.4336 21.831H38.9783L42.7971 14.1095Z" fill="white"/>
</g>
<defs>
<clipPath id="clip0">
<rect width="86" height="138" fill="white"/>
</clipPath>
</defs>
</svg>
