<svg width="156" height="126" viewBox="0 0 156 126" fill="none" xmlns="http://www.w3.org/2000/svg">
<g clip-path="url(#clip0)">
<path d="M105.065 19.8746C128.645 43.6924 128.645 82.3088 105.065 106.127C81.485 129.944 43.254 129.944 19.6739 106.127C-3.90626 82.3088 -3.90626 43.6924 19.6739 19.8746C43.254 -3.94326 81.485 -3.94326 105.065 19.8746Z" fill="#FF9000" stroke="black" stroke-width="4"/>
<path d="M61.5329 109.375C86.9012 109.375 107.466 88.8081 107.466 63.4375C107.466 38.0669 86.9012 17.5 61.5329 17.5C36.1647 17.5 15.5996 38.0669 15.5996 63.4375C15.5996 88.8081 36.1647 109.375 61.5329 109.375Z" fill="white"/>
<path d="M61.5335 95.375C79.2434 95.375 93.6001 81.0761 93.6001 63.4375C93.6001 45.7989 79.2434 31.5 61.5335 31.5C43.8235 31.5 29.4668 45.7989 29.4668 63.4375C29.4668 81.0761 43.8235 95.375 61.5335 95.375Z" fill="#FF7F00"/>
<path d="M73.4315 75.4892C79.9043 68.9511 79.9043 58.3509 73.4315 51.8128C66.9587 45.2748 56.4643 45.2748 49.9915 51.8128C43.5187 58.3509 43.5187 68.9511 49.9915 75.4892C56.4643 82.0272 66.9587 82.0272 73.4315 75.4892Z" fill="black"/>
<path d="M148.746 25.929L63.0888 65.6557C63.0026 65.6953 62.8982 65.6584 62.859 65.5687L61.7285 63.0845C61.6894 62.9974 61.7259 62.8919 61.8147 62.8524L147.472 23.1256C147.559 23.0861 147.663 23.123 147.702 23.2127L148.833 25.6969C148.872 25.7839 148.833 25.8894 148.746 25.929Z" fill="#3E3E3E"/>
<path d="M135.065 27.8305L127.802 31.1982C127.676 31.2562 127.525 31.2008 127.468 31.0742L126.502 28.946C126.457 28.8484 126.478 28.735 126.554 28.6585L133.859 21.3799C134.005 21.2348 134.253 21.3166 134.285 21.5223L135.209 27.5588C135.225 27.6722 135.167 27.783 135.065 27.8305Z" fill="#FF7F00"/>
<path d="M141.294 24.9348L136.287 27.2608C136.132 27.332 135.955 27.2344 135.931 27.063L135.049 20.4964C135.039 20.4146 135.067 20.3329 135.127 20.2775L139.467 16.1635C139.613 16.0263 139.85 16.1054 139.887 16.3032L141.435 24.6552C141.459 24.7713 141.399 24.8873 141.294 24.9348Z" fill="#FF7F00"/>
<path d="M140.654 14.8976L144.513 10.9603C144.654 10.8152 144.9 10.889 144.939 11.0895L147.059 21.9257C147.082 22.0391 147.025 22.1525 146.923 22.2026L142.563 24.3414C142.414 24.4152 142.234 24.3229 142.205 24.1568L140.587 15.1191C140.571 15.04 140.597 14.9582 140.654 14.8976Z" fill="#FF7F00"/>
<path d="M136.939 32.2873L129.676 35.655C129.551 35.713 129.493 35.8633 129.553 35.9925L130.519 38.1207C130.564 38.2183 130.663 38.2763 130.77 38.2684L140.994 37.4166C141.198 37.4008 141.297 37.1555 141.164 36.9973L137.234 32.3532C137.161 32.2662 137.041 32.2398 136.939 32.2873Z" fill="#FF7F00"/>
<path d="M143.175 29.4022L138.165 31.7203C138.011 31.7915 137.969 31.992 138.081 32.1212L142.436 37.0765C142.491 37.1371 142.569 37.1688 142.65 37.1609L148.569 36.5174C148.767 36.4963 148.861 36.2616 148.739 36.106L143.475 29.4761C143.402 29.3838 143.279 29.3521 143.175 29.4022Z" fill="#FF7F00"/>
<path d="M150.292 36.433L155.764 36.0427C155.965 36.0295 156.07 35.7921 155.945 35.6313L149.19 26.9443C149.12 26.8547 148.997 26.823 148.893 26.8679L144.444 28.8141C144.29 28.88 144.243 29.0778 144.347 29.2071L150.078 36.338C150.13 36.404 150.211 36.4383 150.292 36.433Z" fill="#FF7F00"/>
</g>
<defs>
<clipPath id="clip0">
<rect width="156" height="126" fill="white"/>
</clipPath>
</defs>
</svg>
