<svg width="119" height="136" viewBox="0 0 119 136" fill="none" xmlns="http://www.w3.org/2000/svg">
<g clip-path="url(#clip0)">
<path d="M102.172 19.9659L89.0932 24.2694L92.8431 28.0847L65.5425 55.1268L42.2675 49.6047L9.56055 88.3663L12.8801 91.0795L43.6953 53.6778L66.7551 59.6813L94.7864 30.0585L98.1553 33.4858L102.172 19.9659Z" fill="#FF9900"/>
<path d="M110.558 128.1V45.9744C110.558 44.8472 109.653 43.9254 108.546 43.9254H88.9264C87.8192 43.9254 86.9136 44.8472 86.9136 45.9744V128.1H84.3696V68.9708C84.3696 67.8436 83.4641 66.9217 82.3568 66.9217H62.7376C61.6303 66.9217 60.7248 67.8436 60.7248 68.9708V128.1H58.183V85.3248C58.183 84.1976 57.2775 83.2757 56.1702 83.2757H36.551C35.4437 83.2757 34.5382 84.1976 34.5382 85.3248V128.1H31.9964V104.748C31.9964 103.621 31.0908 102.699 29.9836 102.699H10.3576C9.25037 102.699 8.34483 103.621 8.34483 104.748V128.1H0.607422V136H118.607V128.1H110.558Z" fill="black"/>
<rect x="0.607422" y="127.757" width="118" height="8.24244" fill="#FF9900"/>
</g>
<defs>
<clipPath id="clip0">
<rect width="118" height="136" fill="white" transform="translate(0.607422)"/>
</clipPath>
</defs>
</svg>
