<svg width="117" height="122" viewBox="0 0 117 122" fill="none" xmlns="http://www.w3.org/2000/svg">
<g clip-path="url(#clip0)">
<path d="M47.7278 86.303L40.9388 80.1889L39.9243 79.2738L34.1498 74.0715C24.4939 77.0099 15.754 82.4393 11.2925 89.6481C13.1246 89.1838 15.7472 89.2007 15.7235 89.9735C7.37716 100.239 11.608 110.441 2.79687 118.161C2.79687 118.161 17.6981 116.863 29.7595 109.153C31.1064 108.292 30.835 110.519 30.5025 114.182C37.1388 109.021 45.8176 96.1079 47.7278 86.303Z" fill="#FF9900"/>
<path d="M70.8394 72.7788C73.5367 81.1941 75.1279 90.2602 75.1449 100.241C68.3559 107.613 58.5981 114.815 46.3094 121.878C45.8616 122.135 45.3594 121.634 45.6207 121.186C52.559 109.416 58.5676 98.4552 60.8001 90.7855L63.4668 78.7268L70.8394 72.7788Z" fill="#FF9900"/>
<path d="M47.6592 51.4744C39.0381 49.4883 29.8639 48.658 19.9027 49.468C13.1137 56.8394 6.73857 67.1493 0.712952 79.9671C0.49242 80.4348 1.03527 80.8924 1.45937 80.5941C12.6251 72.7109 23.0614 65.8173 30.5255 62.9603L42.3359 59.3034L47.6592 51.4744Z" fill="#FE9802"/>
<path d="M62.1089 85.4544C60.2972 86.7219 57.9799 86.9626 56.1953 85.6543C52.4462 82.9125 49.0941 79.4962 45.7624 76.4561C42.4544 73.3889 39.0786 70.6234 36.0318 67.119C34.5797 65.4515 34.6272 63.1231 35.74 61.215C65.4305 10.3097 113.32 -1.64731 116.316 0.172676C118.379 3.00263 110.429 51.6677 62.1089 85.4544Z" fill="black"/>
<path d="M88.6777 9.46561C92.1961 12.021 96.6305 16.0609 99.701 18.8841C102.575 21.5243 106.599 25.31 109.35 28.4314C116.027 13.0581 117.289 1.51122 116.312 0.17589C114.901 -0.684959 103.474 1.52817 88.6777 9.46561Z" fill="#FF9900"/>
<path opacity="0.04" d="M116.142 0.0980942C116.21 0.118429 116.268 0.145543 116.315 0.172656C93.6651 3.3822 53.9422 32.5562 35.0375 65.0922C34.9459 64.4923 34.8984 63.8077 35.0443 63.0384C35.0612 62.9638 35.0714 62.8893 35.0884 62.8147C35.1087 62.73 35.1359 62.6418 35.163 62.5571C35.2105 62.3944 35.2648 62.2351 35.3293 62.0759C35.353 62.0115 35.3768 61.9505 35.4039 61.8861C35.5023 61.659 35.6109 61.4353 35.7398 61.2184C64.9654 11.1027 111.827 -1.26435 116.142 0.0980942Z" fill="black"/>
<path d="M85.2927 47.3535C93.0202 47.3535 99.2846 41.0959 99.2846 33.3766C99.2846 25.6574 93.0202 19.3997 85.2927 19.3997C77.5652 19.3997 71.3008 25.6574 71.3008 33.3766C71.3008 41.0959 77.5652 47.3535 85.2927 47.3535Z" fill="black"/>
<path d="M87.5993 44.585C93.7967 43.31 97.7861 37.2578 96.5098 31.067C95.2335 24.8762 89.1748 20.8911 82.9773 22.166C76.7799 23.441 72.7905 29.4932 74.0668 35.684C75.3432 41.8748 81.4018 45.8599 87.5993 44.585Z" fill="#FF9900"/>
<path d="M86.9422 40.9903C91.2095 40.1125 93.9564 35.9452 93.0776 31.6825C92.1988 27.4198 88.0271 24.6759 83.7598 25.5537C79.4925 26.4316 76.7456 30.5989 77.6244 34.8615C78.5032 39.1242 82.675 41.8682 86.9422 40.9903Z" fill="white"/>
</g>
<defs>
<clipPath id="clip0">
<rect width="116" height="122" fill="white" transform="translate(0.607422)"/>
</clipPath>
</defs>
</svg>
